PathFileType	4	(X/Y/Z)	C:/Users/beibeiliu/ov580/test_trc/User1\sequence.20_training_dense_right.trc
DataRate	CameraRate	NumFrames	NumMarkers	Units	OrigDataRate	OrigDataStartFrame	OrigNumFrames
120	120	20	19	mm	120	198	263
Frame#	Time	ThumbCMC			ThumbMCP			ThumbIP			ThumbTip			IndexMCP			IndexPIP			IndexTip			MiddleMCP			MiddlePIP			MiddleTip			RingMCP			RingPIP			RingTip			PinkyMCP			PinkyPIP			PinkyTip			BackHand1			BackHand2			BackHand3	
		X0	Y0	Z0	X1	Y1	Z1	X2	Y2	Z2	X3	Y3	Z3	X4	Y4	Z4	X5	Y5	Z5	X6	Y6	Z6	X7	Y7	Z7	X8	Y8	Z8	X9	Y9	Z9	X10	Y10	Z10	X11	Y11	Z11	X12	Y12	Z12	X13	Y13	Z13	X14	Y14	Z14	X15	Y15	Z15	X16	Y16	Z16	X17	Y17	Z17	X18	Y18	Z18	
197	1.64167	112.258	-22.8253	57.5253	104.219	-40.0718	22.5818	105.713	-49.3546	-1.98416	113.467	-64.858	-18.8394	165.525	6.21989	-2.27019	185.293	5.70289	-29.7416	195.219	-10.958	-48.7973	189.019	5.0785	1.07377	205.584	0.217184	-29.0495	206.307	-35.001	-52.5119	203.315	-5.86121	12.5884	221.705	-10.8845	-16.5714	220.315	-28.5881	-38.1792	213.759	-28.959	33.9781	225.788	-28.3586	7.01179	227.771	-30.9162	-17.3672	183.274	-12.3362	59.6598	167.513	-13.2305	94.2775	145.649	1.77809	62.8517	
198	1.65	120.518	-24.1182	56.8741	112.993	-42.4474	28.4036	114.914	-52.2095	-0.343543	123.009	-69.7189	-23.5158	173.213	2.97823	0.306577	197.227	0.235527	-25.4041	206.532	-15.888	-50.8318	204.284	-0.662216	5.10977	216.449	-5.74446	-28.4755	218.035	-36.5861	-49.1335	214.846	-12.2439	18.6509	231.565	-14.9135	-12.9181	230.758	-33.1723	-32.3437	221.452	-32.4733	36.1917	236.055	-34.4003	12.9625	241.174	-36.0872	-9.90009	189.094	-16.1422	64.9346	175.505	-12.9777	92.3599	155.413	-3.10813	65.8636	
199	1.65833	129.022	-25.2118	52.8402	119.854	-44.6853	21.3599	126.575	-55.1201	-2.57685	134.581	-72.3435	-19.8539	188.466	-2.38596	0.318768	204.392	-1.93407	-22.9557	217.944	-21.0832	-43.0314	213.48	-3.88983	6.47385	227.694	-10.1286	-22.0001	230.735	-44.5262	-42.7662	224.127	-16.5002	21.9266	239.395	-19.1295	-8.51455	243.648	-43.2322	-28.8622	228.264	-38.4244	42.5452	243.97	-38.7189	17.2753	248.859	-42.7758	-7.0507	199.467	-19.1917	65.627	180.65	-17.4562	97.2556	159.105	-2.25919	64.3208	
200	1.66667	133.377	-27.6605	54.917	126.039	-47.2935	26.8979	133.121	-58.7405	-1.90849	141.895	-76.4427	-19.132	193.021	-4.64859	2.54506	216.362	-7.60096	-20.7242	227.552	-26.4818	-40.405	222.842	-8.98457	9.33542	239.697	-16.5169	-17.2074	241.47	-47.6883	-38.4977	232.943	-20.0792	25.3563	251.237	-26.6267	-2.75263	253.974	-50.4994	-24.5087	235.97	-41.82	46.0562	249.076	-43.0219	20.2406	256.838	-48.3367	-4.05149	200.452	-19.0917	67.1522	186.474	-20.544	101.62	168.324	-6.04509	65.8169	
201	1.675	134.625	-28.4176	56.4291	131.081	-48.9641	22.9897	137.021	-60.4444	1.74268	149.12	-79.3366	-17.2536	198.814	-7.49753	4.93721	224.655	-11.5518	-17.1604	234.417	-29.8989	-37.6153	228.561	-12.9258	13.6106	244.527	-18.0117	-16.8146	247.618	-52.3308	-37.9245	237.582	-24.5486	30.4118	258.121	-29.0668	4.02869	258.444	-49.9352	-21.1602	238.357	-44.886	48.5056	254.549	-45.495	27.5948	260.922	-53.2036	-0.391395	208.709	-24.6913	71.5171	189.242	-20.2276	99.154	168.461	-9.37296	67.0858	
202	1.68333	139.927	-30.0363	53.9721	134.343	-50.7795	25.51	141.812	-63.1084	-1.02432	156.986	-80.0874	-14.8075	204.963	-7.74189	3.17856	228.116	-14.5125	-16.309	239.908	-34.8757	-35.7784	227.574	-13.8569	14.1918	250.865	-22.5596	-13.7117	250.475	-49.8598	-34.9929	239.229	-23.9128	28.588	260.91	-31.5852	2.76235	263.189	-52.0582	-16.482	242.766	-46.7182	49.2841	254.826	-47.2527	26.8685	264.993	-55.0283	2.06901	208.704	-24.2125	74.7957	193.516	-24.6211	101.028	173.692	-10.5448	67.6461	
203	1.69167	138.381	-29.1369	50.8149	132.762	-50.5898	23.4735	144.434	-64.0804	-0.314844	157.512	-82.6102	-16.5207	207.222	-10.1299	2.92002	228.014	-14.4	-17.4342	239.533	-37.1103	-40.0915	233.322	-14.1811	12.7689	250.704	-23.5405	-13.2506	253.084	-55.1512	-33.2085	242.26	-26.4842	30.8781	261.554	-32.6241	1.41276	264.476	-56.76	-17.2256	243.112	-45.9942	45.7118	254.577	-49.9037	24.2735	262.532	-55.6389	2.29341	209.477	-25.0648	72.8744	193.127	-24.6892	105.1	175.476	-8.58678	65.7358	
204	1.7	137.867	-30.9392	55.1008	135.226	-51.4039	24.7893	141.135	-63.9813	-0.76848	153.244	-82.612	-15.068	208.326	-11.151	4.52576	227.119	-16.3142	-19.369	239.015	-40.6386	-38.8064	232.155	-15.581	13.7311	250.826	-25.3133	-12.5665	249.131	-53.5531	-36.3167	241.402	-25.2012	26.8624	261.681	-34.83	1.45274	260.223	-55.2966	-20.743	240.114	-47.0469	46.595	256.025	-51.7285	25.0436	259.096	-56.3867	-0.0456679	207.896	-27.8925	72.3931	192.854	-24.7539	100.732	174.014	-10.7876	66.5946	
205	1.70833	135.87	-31.5913	54.0395	126.698	-51.1687	25.2627	135.977	-64.5396	0.987079	151.086	-81.892	-14.4334	203.422	-11.6964	2.67468	222.81	-17.0857	-21.3826	231.629	-35.2864	-37.8482	225.514	-16.1548	14.1993	244.727	-23.9419	-14.2235	243.842	-57.1027	-37.8581	239.592	-25.5846	26.6435	253.786	-31.0481	0.0966462	254.135	-52.8803	-21.8081	234.051	-46.9511	45.4399	249.498	-49.0229	22.3326	253.196	-56.3185	-5.54865	208.614	-26.2652	72.0485	187.549	-23.0302	100.194	173.071	-10.1676	66.5524	
206	1.71667	131.495	-30.032	53.5373	124.378	-52.0552	23.7344	131.125	-65.9357	-1.88772	144.049	-83.1842	-16.0098	196.612	-10.3472	1.87394	213.829	-14.9908	-21.8659	224.297	-36.2717	-42.4789	218.341	-13.4775	11.8378	238.39	-21.9395	-17.2958	234.894	-52.7685	-40.9244	230.518	-24.9697	26.0171	249.146	-31.8374	-5.58967	249.628	-55.5538	-26.5288	230.351	-45.0716	42.0223	241.823	-46.561	15.6494	245.55	-54.1353	-7.95373	200.472	-24.0324	67.7424	188.259	-24.2211	97.1396	169.137	-11.5773	65.1491	
207	1.725	124.642	-30.7036	56.3748	120.103	-51.3805	25.1881	122.751	-64.5585	-1.82767	134.621	-82.4146	-16.4081	185.973	-7.44312	-2.1808	206.095	-13.2713	-24.8452	212.285	-32.735	-44.9625	212.55	-10.7216	3.2897	228.015	-18.9719	-22.3236	223.326	-50.3853	-46.629	221.991	-23.3258	21.6512	239.944	-29.5313	-11.634	239.796	-49.4598	-29.6337	222.756	-43.3653	37.934	238.096	-45.3105	11.6371	235.895	-50.96	-13.8309	195.627	-22.4527	65.8932	183.571	-22.8301	99.3293	161.587	-9.05731	66.5189	
208	1.73333	117.681	-30.3639	55.4797	108.843	-51.4079	27.3616	115.763	-63.4351	-0.36495	127.8	-80.8096	-19.9265	172.941	-4.8868	-3.37636	190.312	-7.4659	-27.2905	199.644	-31.2122	-53.642	200.155	-6.85932	-0.551317	217.117	-15.4433	-27.4206	213.495	-45.6228	-49.1346	211.085	-18.4816	15.2377	225.326	-22.0203	-13.1954	227.354	-46.1517	-35.3758	216.794	-38.4443	28.8725	228.202	-39.8937	9.16877	224.799	-45.7663	-18.7991	187.321	-22.0045	61.7735	178.203	-19.9238	92.2905	156.937	-8.4248	61.4062	
209	1.74167	108.405	-30.2372	57.6036	102.549	-51.0592	27.429	106.075	-62.1707	3.2467	117.636	-79.1907	-18.694	159.89	-3.51394	-3.3225	178.612	-6.53519	-30.8971	185.483	-25.1645	-52.3493	188.62	-5.65278	-0.148479	203.752	-11.812	-32.2399	196.412	-40.4308	-54.7344	201.31	-15.1025	10.4172	216.374	-22.3666	-23.2401	213.832	-46.5049	-43.1854	206.679	-35.0148	25.0398	214.393	-35.6176	-1.37235	212.743	-41.4494	-25.6261	184.621	-20.8997	58.4749	174.246	-21.5775	91.0264	150.434	-8.87181	62.1879	
210	1.75	106.175	-30.4543	61.6236	97.49	-49.8537	29.1092	99.4327	-61.5247	3.36801	104.651	-76.8558	-13.4482	148.94	0.109712	-6.53103	164.541	-2.01403	-31.0043	167.846	-22.1184	-59.4792	178.542	-0.571356	-6.41988	184.764	-5.37715	-38.5026	182.924	-34.9862	-57.4992	190.257	-12.2761	8.69374	199.41	-15.5049	-26.6498	197.346	-37.1726	-47.3649	197.608	-32.6768	24.9627	202.418	-30.9765	-3.18768	198.482	-37.8081	-29.3856	172.256	-17.5374	56.8284	166.063	-16.9461	91.4549	139.65	-5.69685	63.6281	
211	1.75833	94.3669	-29.9024	61.7228	82.2064	-50.0669	34.7356	84.2831	-60.5226	5.64502	93.9797	-76.4199	-15.6936	136.644	2.77967	-8.05011	148.92	1.97175	-34.5507	152.17	-19.0747	-61.0606	161.598	3.06896	-5.52422	171.201	-1.53276	-37.9908	168.204	-30.6339	-60.5427	177.719	-7.10009	1.8422	189.458	-11.0907	-29.4424	186.959	-34.0329	-49.8963	188.653	-27.6981	18.3579	190.344	-25.8037	-3.32474	187.612	-33.3511	-34.5123	164.664	-13.0533	53.2326	161.676	-17.6093	89.3149	133.282	-3.50139	62.2365	
212	1.76667	87.8823	-28.8611	62.5663	79.5672	-48.6793	37.4306	75.6541	-59.1779	8.12763	87.1977	-73.8372	-14.8495	124.571	5.61251	-6.41226	135.258	5.02546	-32.6102	138.962	-14.4057	-60.9608	153.14	6.86442	-9.17825	156.824	2.8276	-39.483	156.226	-26.9893	-62.0258	172.206	-3.94462	-0.317026	174.9	-6.72818	-33.0353	173.331	-28.8655	-53.845	180.314	-24.3189	13.5762	181.086	-23.0049	-10.9365	176.68	-29.7327	-37.3059	157.875	-10.1225	54.1991	153.252	-13.8556	85.004	123.542	-2.48501	63.436	
213	1.775	84.1018	-28.5344	65.8514	70.878	-46.7452	34.2443	71.2063	-57.2441	7.45397	83.2857	-69.9885	-15.9041	114.208	6.15106	-3.52175	125.31	8.11209	-33.3558	128.798	-11.2616	-62.1489	142.246	8.25264	-6.90669	148.616	5.1541	-42.4066	147.213	-28.4955	-64.5793	158.666	-0.076451	-2.46656	165.552	-3.24431	-32.6833	160.521	-25.7722	-57.8759	171.434	-21.3623	13.2861	174.718	-20.6784	-12.662	166.11	-23.8379	-36.9382	152.159	-8.09753	55.6988	149.935	-12.071	88.0054	116.01	-1.31034	67.3352	
214	1.78333	78.1096	-28.3637	67.2358	68.6741	-45.8148	38.7451	65.3075	-55.1595	7.18521	74.1285	-68.9288	-13.8074	108.731	8.61953	-5.40986	120.818	9.216	-33.8066	122.29	-9.11322	-60.9459	134.114	10.8181	-10.0001	143.65	6.93812	-41.5876	137.523	-22.7991	-66.1398	152.356	2.61742	-3.81118	158.585	-0.549534	-36.7545	156.577	-21.2878	-57.3132	168.656	-18.4142	10.8544	167.189	-17.3678	-15.4812	161.558	-20.8819	-40.2155	149.437	-5.27893	50.3718	148.262	-8.00628	84.4667	113.976	-1.42112	65.8979	
215	1.79167	76.5128	-27.5035	64.705	65.0344	-44.5251	34.2702	63.4089	-53.5602	9.13522	70.859	-66.9435	-15.4806	108.166	9.84827	-7.00235	116.797	11.4431	-37.1615	120.004	-8.05703	-61.2663	129.726	13.1235	-13.362	137.809	9.10605	-43.8544	136.32	-23.2803	-66.8171	152.47	2.90361	-4.30323	152.931	0.874408	-39.18	150.82	-18.5415	-57.4552	163.89	-15.2523	8.88853	167.985	-14.652	-14.1143	162.075	-15.6379	-39.0516	143.485	-4.29568	51.5134	142.329	-7.30408	83.7293	107.449	2.24841	62.7062	
216	1.8	73.3539	-27.1936	63.6166	65.0076	-45.0804	34.7405	65.1687	-53.5027	5.73932	71.6859	-66.3257	-18.1524	104.321	10.5167	-7.18776	115.378	11.798	-36.7615	121.081	-7.29651	-62.4518	128.07	12.6621	-10.2525	136.923	7.02422	-47.5513	130.837	-20.2003	-67.8302	148.493	5.72394	-6.29485	153.824	2.73442	-36.6299	148.817	-21.2265	-59.889	163.291	-15.5458	8.50143	162.938	-14.6321	-17.0055	162.86	-18.2272	-44.2798	141.542	-1.72151	47.9888	143.399	-5.61986	80.7689	109.017	-0.278637	64.3068	
